<?xml version="1.0"?>
<svg xmlns="http://www.w3.org/2000/svg"
	xmlnsXlink="http://www.w3.org/1999/xlink" version="1.1" width="512" height="512" x="0" y="0" viewBox="0 0 384 384" style="enable-background:new 0 0 512 512" xml:space="preserve" class="">
	<g>
		<g xmlns="http://www.w3.org/2000/svg">
			<g>
				<g>
					<path d="M341.333,0H42.667C19.093,0,0,19.093,0,42.667V128h42.667V42.667h298.667v298.667H42.667V256H0v85.333     C0,364.907,19.093,384,42.667,384h298.667C364.907,384,384,364.907,384,341.333V42.667C384,19.093,364.907,0,341.333,0z" fill="#555555" data-original="#000000" style="" class=""/>
					<polygon points="151.147,268.48 181.333,298.667 288,192 181.333,85.333 151.147,115.52 206.293,170.667 0,170.667 0,213.333      206.293,213.333    " fill="#555555" data-original="#000000" style="" class=""/>
				</g>
			</g>
		</g>
		<g xmlns="http://www.w3.org/2000/svg">
		</g>
		<g xmlns="http://www.w3.org/2000/svg">
		</g>
		<g xmlns="http://www.w3.org/2000/svg">
		</g>
		<g xmlns="http://www.w3.org/2000/svg">
		</g>
		<g xmlns="http://www.w3.org/2000/svg">
		</g>
		<g xmlns="http://www.w3.org/2000/svg">
		</g>
		<g xmlns="http://www.w3.org/2000/svg">
		</g>
		<g xmlns="http://www.w3.org/2000/svg">
		</g>
		<g xmlns="http://www.w3.org/2000/svg">
		</g>
		<g xmlns="http://www.w3.org/2000/svg">
		</g>
		<g xmlns="http://www.w3.org/2000/svg">
		</g>
		<g xmlns="http://www.w3.org/2000/svg">
		</g>
		<g xmlns="http://www.w3.org/2000/svg">
		</g>
		<g xmlns="http://www.w3.org/2000/svg">
		</g>
		<g xmlns="http://www.w3.org/2000/svg">
		</g>
	</g>
</svg>
